<svg width="50" height="50" viewBox="0 0 50 50" fill="none" xmlns="http://www.w3.org/2000/svg">
<g clip-path="url(#clip0)">
<path d="M25 38.6055C19.3774 38.6055 13.3262 36.4066 7.50045 32.2464C3.14542 29.1365 0.457425 26.0554 0.345105 25.9256C-0.115035 25.3943 -0.115035 24.6057 0.345105 24.0743C0.457425 23.9447 3.1453 20.8634 7.50045 17.7535C13.3263 13.5936 19.3775 11.3944 25 11.3944C30.6226 11.3944 36.6739 13.5934 42.4995 17.7535C46.8546 20.8634 49.5426 23.9445 49.6549 24.0743C50.115 24.6056 50.115 25.3942 49.6549 25.9256C49.5426 26.0552 46.8547 29.1365 42.4995 32.2464C36.6739 36.4065 30.6227 38.6055 25 38.6055ZM3.35241 25.0001C4.43942 26.1085 6.49093 28.0575 9.19962 29.9851C12.9131 32.6275 18.6687 35.7777 25 35.7777C31.3313 35.7777 37.087 32.6275 40.8004 29.9851C43.5087 28.0579 45.5604 26.1086 46.6476 25.0001C45.5607 23.8917 43.5091 21.9427 40.8004 20.0152C37.087 17.3726 31.3313 14.2225 25 14.2225C18.6687 14.2225 12.9131 17.3726 9.19962 20.0152C6.49127 21.9424 4.43964 23.8914 3.35241 25.0001Z" fill="#A4A4A4"/>
<path d="M25 33.7663C20.1663 33.7663 16.2338 29.8337 16.2338 25.0001C16.2338 20.1665 20.1663 16.2339 25 16.2339C27.1258 16.2339 29.1765 17.0047 30.7741 18.4043C31.3615 18.9189 31.4206 19.8121 30.906 20.3995C30.3915 20.9869 29.4981 21.0458 28.9108 20.5314C27.829 19.5836 26.44 19.0617 24.9999 19.0617C21.7254 19.0617 19.0615 21.7257 19.0615 25.0001C19.0615 28.2745 21.7254 30.9385 24.9999 30.9385C28.2745 30.9385 30.9383 28.2745 30.9383 25.0001C30.9383 24.2193 31.5714 23.5862 32.3522 23.5862C33.133 23.5862 33.7661 24.2193 33.7661 25.0001C33.7663 29.8337 29.8337 33.7663 25 33.7663Z" fill="#A4A4A4"/>
<path d="M25 27.8279C23.4407 27.8279 22.1722 26.5594 22.1722 25.0001C22.1722 23.4409 23.4407 22.1723 25 22.1723C26.5593 22.1723 27.8278 23.4409 27.8278 25.0001C27.8278 26.5594 26.5593 27.8279 25 27.8279Z" fill="#A4A4A4"/>
</g>
<defs>
<clipPath id="clip0">
<rect width="50" height="50" fill="white"/>
</clipPath>
</defs>
</svg>
