<svg width="32" height="32" viewBox="0 0 32 32" fill="none" xmlns="http://www.w3.org/2000/svg">
<path d="M31.8337 13.2398C31.7221 13.0937 31.5765 13.0068 31.3962 12.9792L27.5836 12.396C27.3753 11.7292 27.0906 11.0489 26.7295 10.3543C26.9792 10.0071 27.3541 9.51756 27.854 8.88541C28.3539 8.25341 28.708 7.7918 28.9165 7.49998C29.0277 7.34718 29.0828 7.18759 29.0828 7.02078C29.0828 6.82646 29.0347 6.6738 28.937 6.56252C28.4373 5.85412 27.2914 4.67366 25.4997 3.02079C25.3336 2.88193 25.1595 2.81253 24.9792 2.81253C24.7707 2.81253 24.6041 2.87492 24.4791 2.99985L21.5209 5.22905C20.9513 4.93723 20.3263 4.6803 19.646 4.4581L19.0627 0.624999C19.0488 0.444468 18.9688 0.295096 18.823 0.177028C18.677 0.0588148 18.5072 0 18.3124 0H13.6875C13.2847 0 13.0346 0.194322 12.9375 0.583259C12.7569 1.27743 12.5554 2.5691 12.3333 4.45803C11.6804 4.66673 11.0485 4.93059 10.4374 5.24999L7.56245 3.02079C7.38192 2.88193 7.20138 2.81253 7.02085 2.81253C6.71532 2.81253 6.05917 3.30903 5.05216 4.30209C4.04516 5.29538 3.36149 6.0418 3.00007 6.54158C2.87499 6.72211 2.81268 6.88192 2.81268 7.02078C2.81268 7.18759 2.882 7.35426 3.02086 7.52071C3.95132 8.64592 4.69453 9.60396 5.25013 10.396C4.90286 11.0348 4.63207 11.6738 4.43782 12.3126L0.562681 12.8958C0.409952 12.9236 0.278093 13.0141 0.166885 13.1669C0.0554581 13.3195 0 13.4794 0 13.6458V18.2709C0 18.4517 0.0554581 18.6145 0.166666 18.7604C0.277874 18.9062 0.423598 18.9935 0.604202 19.021L4.41695 19.5837C4.61127 20.2641 4.89593 20.9514 5.271 21.6456C5.02115 21.993 4.64615 22.4824 4.14615 23.1144C3.64623 23.7467 3.29173 24.2082 3.08362 24.4999C2.97234 24.6533 2.91688 24.8126 2.91688 24.9793C2.91688 25.1596 2.96548 25.3192 3.0626 25.4581C3.60427 26.2085 4.75006 27.3752 6.5002 28.9584C6.65308 29.1112 6.82675 29.1874 7.021 29.1874C7.22948 29.1874 7.40308 29.1252 7.54187 29.0004L10.4796 26.7709C11.0494 27.0625 11.6742 27.3196 12.3548 27.542L12.938 31.3751C12.9521 31.5555 13.0319 31.7048 13.1776 31.8232C13.3233 31.9416 13.4936 32 13.688 32H18.3129C18.7165 32 18.9662 31.8058 19.0636 31.4167C19.2439 30.7224 19.4452 29.4309 19.6674 27.542C20.3202 27.3335 20.9522 27.0695 21.5632 26.7499L24.4384 29.0004C24.6328 29.1253 24.8136 29.1874 24.9799 29.1874C25.2853 29.1874 25.9381 28.6947 26.9379 27.7083C27.9383 26.7224 28.6257 25.9723 29.0004 25.4581C29.1252 25.3193 29.1878 25.1596 29.1878 24.9793C29.1878 24.7985 29.1187 24.6245 28.9794 24.4584C27.9798 23.2358 27.2366 22.2778 26.7504 21.5831C27.0281 21.0692 27.299 20.4374 27.563 19.6873L31.4171 19.1045C31.5834 19.0765 31.7228 18.9861 31.8336 18.8333C31.9448 18.6802 31.9999 18.5204 31.9999 18.3538V13.7292C32.0003 13.5486 31.9451 13.3857 31.8337 13.2398ZM19.7713 19.7708C18.7299 20.8126 17.4729 21.3335 16.0004 21.3335C14.5281 21.3335 13.2712 20.8126 12.2294 19.7708C11.1879 18.7294 10.667 17.4723 10.667 16.0001C10.667 14.5278 11.1877 13.2709 12.2294 12.2291C13.2712 11.1877 14.5283 10.6667 16.0004 10.6667C17.4729 10.6667 18.73 11.1877 19.7713 12.2291C20.8129 13.2709 21.3338 14.5278 21.3338 16.0001C21.3338 17.4723 20.8129 18.7295 19.7713 19.7708Z" fill="white"/>
</svg>
